[img]http://img707.imageshack.us/img707/1549/devilinsidee.jpg[/img]
[code]
The Devil Inside 2012 CAM NEWSOURCE XVID AC3-26K

Imdb: 
http://www.imdb.com/title/tt1560985/

Plot:
In Italy, a woman becomes involved in a series of unauthorized exorcisms during her mission to discover 

what happened to her mother, who allegedly murdered three people during her own exorcism.

Sources:
video-UNKNOWN
AUDIO-INFERNO

Notes:
GLAD TO SEE A NEW SOURCE OUT SAME AUDIO AS BEFORE BT WITH BETTER VIDEO! SO ENJOY.

Greetz:
Xtreme 

Encode|FYA|ILLUMANTI|CM8|RX|VISION|HDSCENE|NIGHTMAREZ|xTriLL|DTRG|CRYS|REMIXHD|BIDA|RX|REFILL|INSPiRAL|S

IC|ZOMBIESZ|HOPE|Anonymous

To all the people who have helped me :P you know who you are

Anything to offer email us @: 26k@hushmail.me

Video
ID                                       : 0
Format                                   : MPEG-4 Visual
Format profile                           : Advanced Simple@L5
Format settings, BVOP                    : 2
Format settings, QPel                    : No
Format settings, GMC                     : No warppoints
Format settings, Matrix                  : Default (H.263)
Codec ID                                 : XVID
Codec ID/Hint                            : XviD
Duration                                 : 1h 15mn
Bit rate                                 : 1 700 Kbps
Width                                    : 720 pixels
Height                                   : 304 pixels
Display aspect ratio                     : 2.35:1
Frame rate                               : 29.970 fps
Color space                              : YUV
Chroma subsampling                       : 4:2:0
Bit depth                                : 8 bits
Scan type                                : Progressive
Compression mode                         : Lossy
Bits/(Pixel*Frame)                       : 0.259
Stream size                              : 918 MiB (89%)
Writing library                          : XviD 63

Audio
ID                                       : 1
Format                                   : AC-3
Format/Info                              : Audio Coding 3
Mode extension                           : CM (complete main)
Codec ID                                 : 2000
Duration                                 : 1h 15mn
Bit rate mode                            : Constant
Bit rate                                 : 192 Kbps
Channel(s)                               : 2 channels
Channel positions                        : Front: L R
Sampling rate                            : 48.0 KHz
Bit depth                                : 16 bits
Compression mode                         : Lossy
Stream size                              : 104 MiB (10%)
Alignment                                : Aligned on interleaves
Interleave, duration                     : 32 ms (0.96 video frame)   
                 
[/code]
Screens:
[img]http://img694.imageshack.us/img694/1766/vlcsnap2012012117h17m51.png[/img]
[img]http://img140.imageshack.us/img140/271/vlcsnap2012012117h17m58.png[/img]
[img]http://img252.imageshack.us/img252/1769/vlcsnap2012012117h18m14.png[/img]
[img]http://img209.imageshack.us/img209/3753/vlcsnap2012012117h20m27.png[/img]

[img]http://img851.imageshack.us/img851/5503/26ks.jpg[/img]
Thank you smallz for banner!